HIERARCHY
ROOT Hips
{
	OFFSET 0.000000 0.000000 0.000000
	CHANNELS 6 Xposition Yposition Zposition Zrotation Yrotation Xrotation 
	JOINT LHipJoint
	{
		OFFSET 0.000000 0.000000 0.000000
		CHANNELS 3 Zrotation Yrotation Xrotation
		JOINT LeftUpLeg
		{
			OFFSET 1.363060 -1.794630 0.839290
			CHANNELS 3 Zrotation Yrotation Xrotation
			JOINT LeftLeg
			{
				OFFSET 2.448110 -6.726130 0.000000
				CHANNELS 3 Zrotation Yrotation Xrotation
				JOINT LeftFoot
				{
					OFFSET 2.562200 -7.039590 0.000000
					CHANNELS 3 Zrotation Yrotation Xrotation
					JOINT LeftToeBase
					{
						OFFSET 0.157640 -0.433110 2.322550
						CHANNELS 3 Zrotation Yrotation Xrotation
						End Site
						{
							OFFSET 0.000000 0.000000 0.000000
						}
					}
				}
			}
		}
	}
	JOINT RHipJoint
	{
		OFFSET 0.000000 0.000000 0.000000
		CHANNELS 3 Zrotation Yrotation Xrotation
		JOINT RightUpLeg
		{
			OFFSET -1.305520 -1.794630 0.839290
			CHANNELS 3 Zrotation Yrotation Xrotation
			JOINT RightLeg
			{
				OFFSET -2.542530 -6.985550 0.000000
				CHANNELS 3 Zrotation Yrotation Xrotation
				JOINT RightFoot
				{
					OFFSET -2.568260 -7.056230 0.000000
					CHANNELS 3 Zrotation Yrotation Xrotation
					JOINT RightToeBase
					{
						OFFSET -0.164730 -0.452590 2.363150
						CHANNELS 3 Zrotation Yrotation Xrotation
						End Site
						{
							OFFSET 0.000000 0.000000 0.000000
						}
					}
				}
			}
		}
	}
}
MOTION
Frames: 25
Frame Time: 0.008333
4.931935 17.369598 0.699864 0.851067 -70.969364 9.659982 -10.517854 1.775714 3.070806 -5.327374 5.100160 -13.001966 -2.602340 -1.611280 -3.705982 -0.252863 -0.413422 5.220698 0.319400 0.000000 -32.896000 9.837588 -2.824232 1.446129 8.145105 -10.214789 -6.924325 1.779515 1.648038 -3.744905 -2.392882 -16.184081 -3.652106 -3.019000 0.000000 -23.194000
4.931550 17.362472 0.704238 0.772833 -70.817915 9.681374 -10.519389 1.785021 3.085184 -5.257254 4.915422 -12.934382 -2.587616 -1.596903 -3.654806 -0.251668 -0.479510 5.082022 0.301500 0.000000 -33.066700 9.826631 -2.790938 1.361739 8.171004 -10.366380 -6.857115 1.778058 1.642686 -3.579841 -2.367856 -16.280620 -3.851004 -3.023999 -0.000000 -23.250000
4.930773 17.356905 0.709725 0.720456 -70.748884 9.702892 -10.525204 1.798445 3.093658 -5.217887 4.825746 -12.899625 -2.580306 -1.584940 -3.622635 -0.253816 -0.569207 4.974457 0.279900 0.000001 -33.213000 9.815554 -2.760449 1.296872 8.183088 -10.497816 -6.830855 1.781436 1.640631 -3.441480 -2.336144 -16.312303 -3.993217 -3.027500 -0.000000 -23.349100
4.929612 17.353097 0.716183 0.698378 -70.758025 9.716494 -10.534434 1.816464 3.097550 -5.209754 4.821037 -12.890617 -2.579645 -1.575207 -3.612678 -0.258520 -0.673624 4.901964 0.256300 -0.000000 -33.325500 9.804958 -2.732344 1.251712 8.178962 -10.603848 -6.843327 1.788119 1.640866 -3.322621 -2.297826 -16.289642 -4.083609 -3.032399 0.000000 -23.481300
4.928255 17.351092 0.723482 0.708748 -70.838753 9.714609 -10.546171 1.839553 3.098384 -5.231032 4.885634 -12.899178 -2.584300 -1.567128 -3.625857 -0.264633 -0.782279 4.864598 0.232800 -0.000000 -33.397500 9.795188 -2.705531 1.224589 8.156912 -10.681158 -6.888423 1.796464 1.642562 -3.215962 -2.253690 -16.225592 -4.129862 -3.041001 0.000000 -23.632400
4.926897 17.350715 0.731415 0.754186 -70.983292 9.689489 -10.559540 1.868065 3.097556 -5.278847 5.000847 -12.916383 -2.592693 -1.559980 -3.660363 -0.270845 -0.884498 4.857935 0.210800 -0.000001 -33.425000 9.786359 -2.678684 1.212720 8.116228 -10.727825 -6.957853 1.804876 1.645166 -3.115878 -2.204828 -16.133744 -4.141295 -3.054400 0.000000 -23.790501
4.925847 17.351655 0.739803 0.835071 -71.183022 9.633520 -10.573812 1.901947 3.096042 -5.348760 5.148250 -12.933112 -2.603100 -1.552979 -3.712156 -0.275884 -0.970620 4.874161 0.192100 -0.000000 -33.407700 9.778485 -2.650507 1.212454 8.056371 -10.744563 -7.041379 1.811995 1.648211 -3.017944 -2.152948 -16.025998 -4.128123 -3.072200 -0.000001 -23.945500
4.925493 17.353521 0.748549 0.947324 -71.429827 9.543448 -10.588460 1.940603 3.094360 -5.435433 5.311331 -12.941960 -2.613825 -1.545422 -3.775173 -0.278645 -1.032936 4.903176 0.177801 0.000000 -33.348400 9.771328 -2.620113 1.220226 7.978337 -10.732552 -7.128615 1.816961 1.651404 -2.920029 -2.099412 -15.911199 -4.099948 -3.093300 0.000000 -24.088100
4.925912 17.355841 0.757485 1.090123 -71.716418 9.416422 -10.602983 1.983351 3.092934 -5.533093 5.477035 -12.936902 -2.623599 -1.537025 -3.843320 -0.278330 -1.066192 4.933702 0.168900 0.000000 -33.253900 9.764869 -2.587289 1.233090 7.883615 -10.694870 -7.210123 1.819317 1.654742 -2.822320 -2.046191 -15.794704 -4.065624 -3.115200 0.000000 -24.212600
4.927476 17.358127 0.766536 1.254530 -72.036975 9.255104 -10.617157 2.028916 3.091814 -5.636023 5.635466 -12.914772 -2.631208 -1.527611 -3.910604 -0.274289 -1.066301 4.954498 0.166000 0.000000 -33.130500 9.758630 -2.551920 1.248976 7.774929 -10.631956 -7.280612 1.818902 1.657983 -2.723425 -1.994122 -15.681035 -4.032386 -3.136700 -0.000000 -24.327800
4.930110 17.359964 0.775706 1.435409 -72.387648 9.063433 -10.630807 2.076295 3.090752 -5.739528 5.783986 -12.873741 -2.636216 -1.517407 -3.971695 -0.266434 -1.033495 4.956866 0.169300 -0.000001 -32.991500 9.752655 -2.514998 1.266775 7.655019 -10.548642 -7.334582 1.816463 1.661444 -2.627576 -1.944149 -15.565863 -4.004946 -3.153800 0.000000 -24.427500
4.933791 17.361004 0.784980 1.625273 -72.766644 8.847643 -10.643863 2.124244 3.089646 -5.839726 5.921439 -12.814095 -2.638361 -1.506926 -4.024150 -0.254723 -0.967896 4.933304 0.178700 0.000000 -32.844500 9.746648 -2.477413 1.286481 7.527089 -10.445517 -7.372522 1.812596 1.664892 -2.533474 -1.896174 -15.446985 -3.987247 -3.165400 0.000000 -24.526800
4.938293 17.360999 0.794356 1.818938 -73.172960 8.614479 -10.656330 2.171849 3.088225 -5.934120 6.051697 -12.737576 -2.637916 -1.496782 -4.066775 -0.239506 -0.872580 4.880655 0.193500 -0.000000 -32.698800 9.740624 -2.440501 1.308813 7.393893 -10.325183 -7.396263 1.808330 1.668307 -2.442172 -1.849453 -15.317735 -3.980691 -3.169400 -0.000001 -24.633300
4.943496 17.359905 0.803916 2.006430 -73.606126 8.373996 -10.668463 2.217940 3.085592 -6.021608 6.184678 -12.649951 -2.635635 -1.487489 -4.097077 -0.221675 -0.755949 4.797295 0.212200 0.000000 -32.564799 9.734367 -2.405729 1.334868 7.259489 -10.191230 -7.410342 1.805133 1.671640 -2.354586 -1.803001 -15.169347 -3.984417 -3.164100 -0.000000 -24.751000
4.948883 17.357741 0.813648 2.187568 -74.067123 8.131276 -10.680332 2.262332 3.081671 -6.102385 6.327034 -12.553639 -2.632239 -1.479753 -4.118237 -0.201757 -0.621818 4.685891 0.233800 -0.000001 -32.445200 9.728025 -2.374248 1.365986 7.125389 -10.044985 -7.420844 1.803769 1.674505 -2.267110 -1.754934 -14.996266 -3.998458 -3.149800 -0.000000 -24.891400
4.954202 17.354648 0.823585 2.358350 -74.556305 7.892493 -10.692205 2.304904 3.076010 -6.177451 6.487933 -12.453019 -2.628565 -1.473945 -4.132594 -0.180560 -0.476780 4.551497 0.257000 -0.000000 -32.341200 9.721590 -2.346916 1.403221 6.993533 -9.888906 -7.434410 1.805170 1.676617 -2.176944 -1.703287 -14.792417 -4.020780 -3.127100 0.000000 -25.057500
4.959152 17.350914 0.833761 2.513289 -75.072283 7.665953 -10.704509 2.345725 3.068092 -6.247899 6.678554 -12.355826 -2.625699 -1.470157 -4.138989 -0.159256 -0.331555 4.398850 0.279600 -0.000000 -32.254800 9.714857 -2.324640 1.447707 6.867239 -9.725788 -7.458062 1.810210 1.677842 -2.081195 -1.646487 -14.554110 -4.048567 -3.097300 0.000000 -25.248700
4.963443 17.346809 0.844092 2.659448 -75.614933 7.447287 -10.717146 2.385821 3.058484 -6.316175 6.899787 -12.261260 -2.624014 -1.468560 -4.144505 -0.137981 -0.185521 4.236821 0.301700 0.000000 -32.180500 9.708244 -2.307200 1.499404 6.745056 -9.557324 -7.496825 1.818762 1.677708 -1.973762 -1.582675 -14.280737 -4.081111 -3.062400 0.000000 -25.465600
4.966897 17.342635 0.854528 2.793712 -76.180012 7.241588 -10.730448 2.425745 3.047116 -6.383554 7.157522 -12.175301 -2.624233 -1.468860 -4.147981 -0.117637 -0.046836 4.071122 0.321900 -0.000000 -32.116000 9.701565 -2.294767 1.558470 6.629205 -9.385992 -7.554970 1.830996 1.676157 -1.851469 -1.511357 -13.974166 -4.116163 -3.024400 -0.000000 -25.701400
4.969410 17.338661 0.864990 2.921553 -76.763923 7.044367 -10.744342 2.466340 3.034466 -6.451644 7.449738 -12.098258 -2.626483 -1.470748 -4.151927 -0.098347 0.084283 3.908332 0.340200 -0.000000 -32.056101 9.695024 -2.286741 1.624067 6.518924 -9.213602 -7.634342 1.846403 1.672962 -1.710529 -1.432067 -13.638531 -4.153105 -2.985500 -0.000000 -25.950200
4.971022 17.335099 0.875324 3.048580 -77.361491 6.849702 -10.758650 2.508187 3.021061 -6.521841 7.771611 -12.029376 -2.630690 -1.473861 -4.158271 -0.080095 0.208608 3.753187 0.357000 0.000000 -31.996200 9.688796 -2.282356 1.694783 6.413530 -9.042422 -7.734317 1.864319 1.667981 -1.548916 -1.345526 -13.279520 -4.191093 -2.947001 -0.000000 -26.204499
4.971763 17.332096 0.885436 3.181554 -77.967048 6.650897 -10.773174 2.551550 3.007138 -6.594756 8.116958 -11.967681 -2.636607 -1.477753 -4.167369 -0.062714 0.327930 3.608844 0.372600 0.000000 -31.932600 9.683065 -2.280699 1.768905 6.312061 -8.874407 -7.852687 1.884010 1.661276 -1.367041 -1.253198 -12.903369 -4.229768 -2.909900 -0.000000 -26.457100
4.971769 17.329664 0.895179 3.328448 -78.575095 6.439929 -10.787642 2.596362 2.992888 -6.670476 8.477762 -11.911162 -2.643820 -1.482031 -4.179243 -0.045901 0.445162 3.476965 0.387700 -0.000000 -31.862200 9.678011 -2.280962 1.844600 6.213693 -8.711080 -7.985472 1.904711 1.652958 -1.167490 -1.157043 -12.516593 -4.267836 -2.874400 0.000000 -26.701200
4.971190 17.327802 0.904506 3.492419 -79.179901 6.213534 -10.801979 2.642021 2.977808 -6.748254 8.848480 -11.858970 -2.652014 -1.486304 -4.191807 -0.029581 0.560456 3.356631 0.402400 0.000000 -31.785200 9.673610 -2.282490 1.919874 6.118526 -8.554415 -8.127547 1.925938 1.643306 -0.954820 -1.059454 -12.124668 -4.304531 -2.840101 0.000000 -26.932300
4.970246 17.326420 0.913280 3.687458 -79.778288 5.956706 -10.815427 2.687814 2.962642 -6.828672 9.216009 -11.806959 -2.660350 -1.490705 -4.208398 -0.012725 0.683904 3.247572 0.418400 0.000000 -31.698000 9.670319 -2.284329 1.993711 6.023722 -8.402860 -8.274822 1.946813 1.632714 -0.735821 -0.963112 -11.733237 -4.339036 -2.806300 -0.000001 -27.147700
